<svg width="288" height="84" viewBox="0 0 288 84" fill="none" xmlns="http://www.w3.org/2000/svg">
<path d="M13.1634 48.5341C17.4467 48.2011 21.1658 48.1491 27.0685 48.1491C36.0007 48.1491 39.0931 50.2304 36.3873 57.2859C34.5904 61.896 32.4174 64.1334 27.6326 64.5705L27.5072 64.8722C32.7308 65.3093 33.5979 68.6082 31.4145 74.1444C28.8027 80.8565 24.7283 82.4695 16.3393 82.4695C8.73378 82.4695 4.69075 82.4695 0 82.0845L13.1634 48.5341ZM16.1303 75.1642C19.2645 75.1642 20.2465 74.4878 21.5628 71.1785C22.6075 68.4625 22.3046 67.8797 19.86 67.8797H15.9109L13.0484 75.1642H16.1303ZM21.6569 61.511C24.1433 61.511 24.9268 60.9282 26.0969 58.0144C26.8804 56.0684 26.5983 55.4336 24.8955 55.4336H20.8002L18.3869 61.511H21.6569Z" fill="#F7F7FA"/>
<path d="M68.5537 65.6948C63.2361 79.4928 57.6365 82.7497 47.0118 82.7497C35.3528 82.7497 32.3858 78.7123 37.7974 64.9144C43.209 51.1165 48.6102 47.8699 59.0991 47.8699C70.2148 47.8699 73.9235 51.7408 68.5537 65.6948ZM48.7042 65.6948C45.5701 73.3638 45.7999 74.9247 49.2579 74.9247C52.9144 74.9247 54.2725 73.2181 57.6156 64.9144C60.7497 57.287 60.4781 55.6846 57.0201 55.6846C53.5621 55.6846 52.11 57.3807 48.7042 65.6948Z" fill="#F7F7FA"/>
<path d="M97.8061 78.6227C96.8554 80.9956 95.4659 82.0675 93.0735 82.0675H89.5633C87.3694 82.0675 87.056 80.8083 86.6277 78.81L83.7756 67.2995C83.4193 65.4732 83.3103 63.6076 83.4517 61.7524H83.1174C82.6521 63.8765 82.0305 65.9636 81.2578 67.9968L75.6164 82.0883H65.911L77.7163 52.032C78.6565 49.6487 80.0564 48.5768 82.4384 48.5768H85.9486C88.1529 48.5768 88.4037 49.8881 88.8424 51.8342L91.7467 62.7723C92.1823 64.6661 92.3823 66.606 92.3422 68.5484H92.7288C93.0318 66.6043 93.5468 64.6989 94.2645 62.866L99.9059 48.5768H109.611L97.8061 78.6227Z" fill="#F7F7FA"/>
<path d="M114.125 74.9257L109.695 82.0648H98.7363L119.505 51.0628C119.95 50.3041 120.583 49.6727 121.345 49.2296C122.106 48.7865 122.97 48.5469 123.851 48.534H133.41C133.788 48.5097 134.167 48.571 134.517 48.7133C134.868 48.8556 135.182 49.0752 135.435 49.3556C135.689 49.636 135.875 49.9699 135.98 50.3323C136.085 50.6947 136.107 51.0761 136.043 51.4479L132.679 82.0648H122.096L123.277 74.9257H114.125ZM125.878 60.0127C126.088 58.7443 126.389 57.4924 126.776 56.2663H125.366C124.828 57.5293 124.196 58.7503 123.475 59.9191L118.899 67.2559H124.603L125.878 60.0127Z" fill="#F7F7FA"/>
<path d="M195.162 56.4112C193.397 56.4112 192.592 56.89 192.028 58.347L190.555 62.0937H202.308L199.675 69.0874H187.818L182.751 82.0654H172.116L182.438 55.7764C183.204 53.6203 184.618 51.751 186.487 50.4219C188.355 49.0927 190.589 48.3679 192.885 48.3455C198.693 48.3455 205.066 48.3455 209.381 49.074L206.372 56.4112H195.162Z" fill="#F7F7FA"/>
<path d="M199.916 82.0644L213.121 48.5373H223.652L210.488 82.0644H199.916Z" fill="#F7F7FA"/>
<path d="M228.791 48.5347C232.625 48.2433 237.556 48.056 242.623 48.056C253.551 48.056 257.521 51.8853 252.088 65.7457C246.813 79.1482 242.049 82.6029 230.63 82.6029C224.727 82.6029 220.047 82.4052 215.628 82.1138L228.791 48.5347ZM232.354 74.9235C235.665 74.9235 237.922 73.321 241.108 64.9132C243.981 57.3795 244.075 55.6834 240.314 55.6834H236.512L229 74.9235H232.354Z" fill="#F7F7FA"/>
<path d="M272.377 56.4111C271.728 56.3072 271.063 56.4479 270.513 56.8058C269.962 57.1637 269.565 57.7132 269.399 58.347L268.188 61.4692H280.338L277.694 68.4631H265.45L263.936 72.3556C263.424 73.6149 263.852 74.2498 265.262 74.2498H276.974L274.884 81.7328C269.356 82.2462 263.803 82.4408 258.252 82.3156C252.684 82.3156 250.939 78.4752 253.029 73.1778L259.83 55.8283C260.575 53.6486 261.991 51.7578 263.875 50.4241C265.76 49.0904 268.018 48.3813 270.329 48.3973C275.941 48.2732 281.555 48.4992 287.139 49.0738L284.109 56.4632L272.377 56.4111Z" fill="#F7F7FA"/>
<path d="M159.915 7.41327C131.969 20.9407 129.346 40.1808 143.387 40.7114C150.669 41.0028 137.986 24.6555 159.915 7.41327Z" fill="#F7F7FA"/>
<path d="M187.735 0C150.24 10.2921 140.545 42.23 161.314 42.4173C157.992 50.3784 149.101 75.271 151.316 83.1696C195.142 43.7077 167.561 26.6305 187.735 0Z" fill="#F7F7FA"/>
<path d="M154.617 45.9761L146.259 72.5037C146.259 72.5037 142.363 52.4805 148.077 46.9023C150.825 44.2797 154.617 45.9761 154.617 45.9761Z" fill="#F7F7FA"/>
</svg>
