<svg width="32" height="32" viewBox="0 0 32 32" fill="none" xmlns="http://www.w3.org/2000/svg">
<path d="M16.0001 10.6667V16.0001M16.0001 21.3334H16.0134M2.66675 11.3637V20.6364C2.66675 20.9625 2.66675 21.1256 2.70359 21.2791C2.73625 21.4151 2.79012 21.5452 2.86323 21.6645C2.94568 21.799 3.06098 21.9143 3.29159 22.1449L9.85524 28.7086C10.0858 28.9392 10.2011 29.0545 10.3357 29.1369C10.455 29.21 10.5851 29.2639 10.7211 29.2966C10.8746 29.3334 11.0376 29.3334 11.3637 29.3334H20.6364C20.9625 29.3334 21.1256 29.3334 21.2791 29.2966C21.4151 29.2639 21.5452 29.21 21.6645 29.1369C21.799 29.0545 21.9143 28.9392 22.1449 28.7086L28.7086 22.1449C28.9392 21.9143 29.0545 21.799 29.1369 21.6645C29.21 21.5452 29.2639 21.4151 29.2966 21.2791C29.3334 21.1256 29.3334 20.9625 29.3334 20.6364V11.3637C29.3334 11.0376 29.3334 10.8746 29.2966 10.7211C29.2639 10.5851 29.21 10.455 29.1369 10.3357C29.0545 10.2011 28.9392 10.0858 28.7086 9.85524L22.1449 3.29159C21.9143 3.06098 21.799 2.94568 21.6645 2.86323C21.5452 2.79012 21.4151 2.73625 21.2791 2.70359C21.1256 2.66675 20.9625 2.66675 20.6364 2.66675H11.3637C11.0376 2.66675 10.8746 2.66675 10.7211 2.70359C10.5851 2.73625 10.455 2.79012 10.3357 2.86323C10.2011 2.94568 10.0858 3.06098 9.85524 3.29159L3.29159 9.85524C3.06098 10.0858 2.94568 10.2011 2.86323 10.3357C2.79012 10.455 2.73625 10.5851 2.70359 10.7211C2.66675 10.8746 2.66675 11.0376 2.66675 11.3637Z" stroke="white" stroke-width="2" stroke-linecap="round" stroke-linejoin="round"/>
</svg>
