<svg width="271" height="83" viewBox="0 0 271 83" fill="none" xmlns="http://www.w3.org/2000/svg">
<path d="M74.9602 8.68861C68.9608 5.64956 62.6072 3.37574 56.0437 1.92108C55.9096 1.89776 55.7741 1.92981 55.6589 2.01289C55.5656 2.09451 55.4913 2.22427 55.4913 2.36565V43.7609C55.4913 47.0681 52.942 49.6612 49.6697 49.6612C46.4033 49.6612 43.8481 47.0681 43.8481 43.7609V0.606339C43.8481 0.362923 43.6674 0.167595 43.4313 0.157394C41.688 0.0524521 40.0468 0 38.4274 0C33.7748 0 29.0974 0.399368 24.5221 1.19083C24.3049 1.23164 24.1461 1.41968 24.1461 1.63248V41.9112C24.1461 55.7961 35.5968 67.1098 49.6697 67.1098C63.7456 67.1098 75.2021 55.7961 75.2021 41.9112V9.08506C75.2021 8.91453 75.1089 8.75857 74.9602 8.68861Z" fill="#F7F7FA"/>
<path d="M73.1384 57.9774C72.8556 57.6203 72.1837 57.648 71.882 58.2034C67.4728 66.4533 57.8775 71.1015 48.2794 70.7327C27.2582 69.9208 19.9718 54.9719 19.9718 41.1672C19.9718 41.1672 19.9718 31.4481 19.9718 38.5523C19.9718 45.6624 19.9718 2.72792 19.9718 2.72792C19.9718 2.59383 19.9163 2.46409 19.7954 2.38538C19.689 2.30083 19.5432 2.27605 19.412 2.30083C12.7684 3.78902 6.32153 6.08472 0.241963 9.12814C0.09329 9.20831 0 9.34676 0 9.5173V43.1874C1.72723 75.2133 35.4906 82.714 36.6873 82.714C37.7251 82.7038 62.9776 79.7041 72.1152 61.4479C72.1633 61.3299 72.2216 61.2118 72.2843 61.0937C72.3761 60.9013 72.4519 60.7235 72.5335 60.553C72.6807 60.2484 72.825 59.9437 72.9664 59.6303C72.9431 59.6609 72.9052 59.6959 72.8862 59.7324C73.1136 59.1799 73.2244 58.8433 73.2317 58.8127C73.3556 58.3841 73.2535 58.1232 73.1384 57.9774Z" fill="#F7F7FA"/>
<path d="M100.732 19.437H97.5147V23.1844H100.732V19.437Z" fill="#F7F7FA"/>
<path d="M100.724 31.2747H108.461V34.2059H97.5173V19.8793H100.724V31.2747Z" fill="#F7F7FA"/>
<path d="M115.224 22.8083C114.675 23.0502 114.21 23.3796 113.835 23.7921C113.456 24.2075 113.168 24.69 112.968 25.2453C112.768 25.8036 112.663 26.4012 112.663 27.044C112.663 27.6853 112.768 28.2873 112.968 28.8485C113.168 29.4126 113.459 29.8994 113.844 30.3148C114.23 30.7273 114.692 31.0494 115.233 31.2855C115.772 31.5202 116.389 31.6397 117.074 31.6397C117.771 31.6397 118.395 31.5173 118.941 31.2753C119.491 31.0305 119.956 30.6996 120.333 30.2813C120.709 29.863 120.994 29.3732 121.187 28.8164C121.378 28.2611 121.479 27.6678 121.479 27.044C121.479 26.3851 121.375 25.7774 121.18 25.2147C120.978 24.6492 120.692 24.1638 120.313 23.7484C119.932 23.3359 119.467 23.0152 118.919 22.7864C118.373 22.5619 117.755 22.4468 117.074 22.4468C116.389 22.4468 115.773 22.5678 115.224 22.8083ZM120.171 20.1467C121.112 20.5257 121.915 21.0489 122.575 21.7209C123.241 22.387 123.759 23.1756 124.129 24.0807C124.496 24.9859 124.686 25.9741 124.686 27.044C124.686 28.0686 124.496 29.0336 124.129 29.9387C123.759 30.8439 123.234 31.6339 122.566 32.3117C121.897 32.9895 121.093 33.5229 120.163 33.915C119.228 34.3071 118.202 34.5039 117.074 34.5039C115.961 34.5039 114.942 34.3158 114.016 33.9383C113.089 33.5594 112.29 33.0361 111.61 32.3641C110.932 31.698 110.407 30.9051 110.037 29.9926C109.67 29.0802 109.48 28.0978 109.48 27.044C109.48 26.0178 109.67 25.0471 110.037 24.1346C110.407 23.2222 110.932 22.4307 111.61 21.7617C112.29 21.0912 113.089 20.5592 114.016 20.1686C114.942 19.7779 115.961 19.5826 117.074 19.5826C118.202 19.5826 119.234 19.7721 120.171 20.1467Z" fill="#F7F7FA"/>
<path d="M134.899 31.4671C136.308 31.4671 137.015 30.9045 137.015 29.7777C137.015 29.2384 136.829 28.8274 136.458 28.5505C136.088 28.2692 135.561 28.1307 134.88 28.1307H131.112V31.4671H134.899ZM134.386 25.5231C134.927 25.5231 135.349 25.3934 135.657 25.1281C135.964 24.8657 136.117 24.5043 136.117 24.048C136.117 23.0948 135.502 22.6167 134.277 22.6167H131.112V25.5231H134.386ZM137.945 20.9273C138.805 21.627 139.237 22.5817 139.237 23.7915C139.237 24.392 139.113 24.9255 138.864 25.3948C138.613 25.8671 138.276 26.2154 137.848 26.4428V26.6338C138.544 26.8641 139.103 27.2722 139.525 27.864C139.946 28.4572 140.153 29.1437 140.153 29.9279C140.153 30.5109 140.054 31.0648 139.849 31.5866C139.642 32.1055 139.321 32.5559 138.882 32.9407C138.451 33.327 137.897 33.633 137.23 33.8619C136.555 34.0893 135.765 34.2059 134.858 34.2059H127.926V19.8793H134.255C135.852 19.8793 137.084 20.2291 137.945 20.9273Z" fill="#F7F7FA"/>
<path d="M152.496 28.5388L150.597 23.0875H150.382L148.458 28.5388H152.496ZM158.183 34.2059H154.634L153.547 31.3592H147.409L146.339 34.2059H142.856L148.735 19.8589H152.263L158.183 34.2059Z" fill="#F7F7FA"/>
<path d="M170.08 22.8622C169.432 22.6261 168.707 22.5109 167.908 22.5109C167.213 22.5109 166.585 22.6202 166.022 22.8418C165.457 23.0619 164.974 23.3767 164.573 23.7834C164.18 24.1871 163.872 24.671 163.657 25.2264C163.442 25.7832 163.336 26.3851 163.336 27.044C163.336 27.7247 163.45 28.3456 163.667 28.9009C163.89 29.4577 164.197 29.93 164.6 30.325C164.999 30.7171 165.474 31.0217 166.031 31.2433C166.588 31.4634 167.197 31.5741 167.865 31.5741C168.679 31.5741 169.437 31.4342 170.146 31.1587C170.85 30.8803 171.485 30.4781 172.036 29.9504L173.857 32.1936C172.229 33.7314 170.178 34.5039 167.699 34.5039C166.588 34.5039 165.566 34.3275 164.639 33.9806C163.712 33.6308 162.919 33.1308 162.257 32.4822C161.593 31.8365 161.081 31.0538 160.708 30.1428C160.335 29.2289 160.154 28.2115 160.154 27.0862C160.154 26.0601 160.332 25.0908 160.695 24.1755C161.059 23.2674 161.584 22.4672 162.268 21.7836C162.951 21.0985 163.778 20.5592 164.744 20.1686C165.718 19.7779 166.811 19.5826 168.04 19.5826C169.152 19.5826 170.168 19.7502 171.102 20.084C172.026 20.4164 172.851 20.9061 173.575 21.5489L171.806 23.8781C171.302 23.4365 170.732 23.0983 170.08 22.8622Z" fill="#F7F7FA"/>
<path d="M180.929 25.4808H187.195V19.8793H190.422V34.2059H187.195V28.4528H180.929V34.2059H177.702V19.8793H180.929V25.4808Z" fill="#F7F7FA"/>
<path d="M205.893 22.7639H198.353V25.459H205.084V28.2604H198.353V31.3184H206.263V34.2059H195.186V19.8793H205.893V22.7639Z" fill="#F7F7FA"/>
<path d="M216.103 30.9732H216.316L219.991 19.8796H223.67L217.984 34.2455H214.2L208.509 19.8796H212.251L216.103 30.9732Z" fill="#F7F7FA"/>
<path d="M234.135 22.7441C233.433 22.5313 232.711 22.4249 231.953 22.4249C231.018 22.4249 230.347 22.5517 229.946 22.7966C229.547 23.0473 229.347 23.3927 229.347 23.8358C229.347 24.2498 229.494 24.5574 229.796 24.7658C230.098 24.9713 230.57 25.1171 231.23 25.2031L233.323 25.4814C234.89 25.6972 236.07 26.1767 236.845 26.923C237.616 27.6722 238.005 28.6532 238.005 29.8659C238.005 30.564 237.874 31.1995 237.601 31.7665C237.33 32.3365 236.937 32.8262 236.411 33.2314C235.898 33.6366 235.247 33.9485 234.468 34.173C233.694 34.3931 232.806 34.5039 231.808 34.5039C230.625 34.5039 229.547 34.3814 228.578 34.1395C227.611 33.8961 226.661 33.4705 225.734 32.8568L227.084 30.2288C227.879 30.7273 228.678 31.0815 229.475 31.2957C230.271 31.5115 231.117 31.6164 232 31.6164C232.942 31.6164 233.641 31.4736 234.108 31.1908C234.568 30.9051 234.797 30.5218 234.797 30.0364C234.797 29.621 234.644 29.2959 234.331 29.0525C234.017 28.8076 233.498 28.6371 232.771 28.5394L230.57 28.2611C229.171 28.0759 228.086 27.6401 227.32 26.9565C226.546 26.2744 226.164 25.2832 226.164 23.9831C226.164 23.2718 226.307 22.6421 226.579 22.094C226.859 21.546 227.248 21.0869 227.745 20.7152C228.247 20.3435 228.849 20.0607 229.551 19.8683C230.257 19.6774 231.036 19.5826 231.892 19.5826C233.048 19.5826 234.108 19.7299 235.074 20.0301C236.043 20.3304 236.895 20.7851 237.619 21.3973L236.04 23.6843C235.472 23.2718 234.838 22.9598 234.135 22.7441Z" fill="#F7F7FA"/>
<path d="M245.202 25.3307L246.76 25.1601L250.804 19.8793H254.754L249.434 26.5711L255.273 34.2059H251.146L246.781 28.0899H245.202V34.2059H242.039V19.8793H245.202V25.3307Z" fill="#F7F7FA"/>
<path d="M263.778 26.2519H263.987L267.194 19.8793H271L265.439 29.4134V34.2059H262.231V29.4134L256.675 19.8793H260.526L263.778 26.2519Z" fill="#F7F7FA"/>
<path d="M100.474 51.3752C100.474 52.5325 100.751 53.4464 101.294 54.1242C101.847 54.8005 102.653 55.1372 103.724 55.1372C104.806 55.1372 105.618 54.8195 106.158 54.1854C106.702 53.5514 106.973 52.6316 106.973 51.4189V43.4008H110.199V51.3504C110.199 52.3518 110.063 53.2598 109.782 54.0805C109.506 54.9011 109.093 55.6022 108.543 56.1882C107.996 56.7683 107.319 57.223 106.513 57.5422C105.707 57.8658 104.78 58.0232 103.724 58.0232C102.681 58.0232 101.759 57.8687 100.956 57.567C100.15 57.2566 99.4725 56.8149 98.9259 56.2406C98.3764 55.659 97.9566 54.9696 97.6739 54.1548C97.3867 53.3429 97.2453 52.4305 97.2453 51.4189V43.4008H100.474V51.3752Z" fill="#F7F7FA"/>
<path d="M129.19 57.7252H125.985L119.38 48.5745V57.7252H116.257V43.4001H119.147L126.094 53.0639V43.4001H129.19V57.7252Z" fill="#F7F7FA"/>
<path d="M140.006 57.7252H136.776V43.4001H140.006V57.7252Z" fill="#F7F7FA"/>
<path d="M153.597 54.4951H153.811L157.488 43.4H161.164L155.477 57.7659H151.695L146.01 43.4H149.749L153.597 54.4951Z" fill="#F7F7FA"/>
<path d="M176.799 46.2876H169.254V48.9783H175.987V51.7798H169.254V54.8378H177.166V57.7252H166.088V43.4001H176.799V46.2876Z" fill="#F7F7FA"/>
<path d="M189.466 50.605C190.234 50.605 190.852 50.4126 191.316 50.0263C191.778 49.6444 192.011 49.1066 192.011 48.423C192.011 47.7394 191.794 47.2103 191.36 46.8313C190.924 46.4552 190.32 46.2658 189.554 46.2658H186.433V50.605H189.466ZM191.969 43.7441C192.653 43.9715 193.243 44.2995 193.734 44.7266C194.225 45.1522 194.604 45.6696 194.877 46.2658C195.145 46.8663 195.281 47.5339 195.281 48.2758C195.281 49.2582 195.024 50.1283 194.514 50.8834C193.998 51.6399 193.279 52.2083 192.354 52.5931L195.834 57.7252H191.946L189.32 53.4516H186.433V57.7252H183.225V43.4001H189.705C190.526 43.4001 191.284 43.5153 191.969 43.7441Z" fill="#F7F7FA"/>
<path d="M208.939 46.2664C208.235 46.0521 207.511 45.9428 206.756 45.9428C205.814 45.9428 205.147 46.074 204.743 46.3189C204.348 46.571 204.146 46.9121 204.146 47.3538C204.146 47.7706 204.299 48.0811 204.596 48.2866C204.895 48.495 205.373 48.6408 206.032 48.7253L208.128 49.0008C209.693 49.2195 210.865 49.6975 211.639 50.4438C212.416 51.1959 212.805 52.1754 212.805 53.3838C212.805 54.0863 212.671 54.7203 212.401 55.2859C212.13 55.8587 211.737 56.3456 211.213 56.7522C210.692 57.1574 210.044 57.4737 209.265 57.6909C208.488 57.9154 207.606 58.0232 206.607 58.0232C205.422 58.0232 204.348 57.9022 203.377 57.6603C202.411 57.4183 201.461 56.9883 200.538 56.3791L201.88 53.7511C202.682 54.2481 203.476 54.6023 204.275 54.8165C205.078 55.0308 205.914 55.1372 206.797 55.1372C207.736 55.1372 208.441 54.9929 208.905 54.7145C209.369 54.4245 209.601 54.0426 209.601 53.5572C209.601 53.1418 209.441 52.8182 209.13 52.5734C208.814 52.3299 208.301 52.1594 207.564 52.0603L205.37 51.7804C203.965 51.5968 202.886 51.158 202.117 50.4744C201.348 49.7937 200.964 48.8026 200.964 47.5039C200.964 46.7911 201.104 46.1615 201.383 45.6134C201.659 45.0668 202.048 44.6062 202.542 44.236C203.044 43.8643 203.646 43.5845 204.351 43.3906C205.059 43.1982 205.836 43.102 206.692 43.102C207.845 43.102 208.907 43.2521 209.88 43.5495C210.843 43.8497 211.694 44.3045 212.422 44.9196L210.843 47.2051C210.272 46.7911 209.635 46.4807 208.939 46.2664Z" fill="#F7F7FA"/>
<path d="M221.813 57.7252H218.586V43.4001H221.813V57.7252Z" fill="#F7F7FA"/>
<path d="M240.827 46.3095H235.928V57.7252H232.746V46.3095H227.847V43.4001H240.827V46.3095Z" fill="#F7F7FA"/>
<path d="M251.615 49.7713H251.824L255.032 43.4001H258.842L253.281 52.9356V57.7252H250.073V52.9356L244.52 43.4001H248.363L251.615 49.7713Z" fill="#F7F7FA"/>
</svg>
