<svg width="279" height="75" viewBox="0 0 279 75" fill="none" xmlns="http://www.w3.org/2000/svg">
<path fill-rule="evenodd" clip-rule="evenodd" d="M81.9289 65.6527C84.798 65.6527 87.3312 65.088 89.5285 63.9563C91.7234 62.8269 93.4199 61.228 94.6166 59.162C95.811 57.0971 96.4106 54.6927 96.4106 51.9524C96.4106 47.7781 95.0946 44.4948 92.4627 42.1025C89.8307 39.7113 86.3199 38.5145 81.9289 38.5145H76.7095V65.6527H81.9289ZM67.9035 30.5561H81.9939C86.5595 30.5561 90.6266 31.4483 94.1928 33.2314C97.7579 35.0145 100.529 37.5152 102.509 40.7323C104.488 43.9518 105.479 47.6914 105.479 51.9524C105.479 56.1291 104.488 59.8591 102.509 63.1412C100.529 66.4257 97.7579 68.9914 94.1928 70.8396C90.6266 72.6877 86.5595 73.6112 81.9939 73.6112H67.9035V30.5561Z" fill="#F7F7FA"/>
<path fill-rule="evenodd" clip-rule="evenodd" d="M139.301 64.4462C141.411 63.2506 143.061 61.5759 144.259 59.4231C145.455 57.2703 146.052 54.8238 146.052 52.0835C146.052 49.389 145.455 46.9629 144.259 44.8101C143.061 42.6574 141.411 40.9718 139.301 39.7545C137.191 38.5373 134.832 37.9281 132.223 37.9281C129.571 37.9281 127.2 38.5265 125.112 39.722C123.024 40.9188 121.382 42.5924 120.187 44.7451C118.991 46.8979 118.394 49.3456 118.394 52.0835C118.394 54.8238 118.991 57.2703 120.187 59.4231C121.382 61.5759 123.024 63.2506 125.112 64.4462C127.2 65.6442 129.571 66.2402 132.223 66.2402C134.832 66.2402 137.191 65.6442 139.301 64.4462ZM132.158 74.3949C127.984 74.3949 124.155 73.416 120.677 71.4595C117.198 69.5018 114.435 66.8181 112.392 63.4023C110.346 59.989 109.325 56.2168 109.325 52.0835C109.325 47.9526 110.346 44.1804 112.392 40.7659C114.435 37.3526 117.198 34.6664 120.677 32.7099C124.155 30.7522 127.984 29.7734 132.158 29.7734C136.332 29.7734 140.172 30.7522 143.672 32.7099C147.172 34.6664 149.957 37.3526 152.022 40.7659C154.088 44.1804 155.121 47.9526 155.121 52.0835C155.121 56.2168 154.088 59.989 152.022 63.4023C149.957 66.8181 147.172 69.5018 143.672 71.4595C140.172 73.416 136.332 74.3949 132.158 74.3949Z" fill="#F7F7FA"/>
<path fill-rule="evenodd" clip-rule="evenodd" d="M188.944 64.4462C191.052 63.2506 192.705 61.5759 193.902 59.4231C195.098 57.2703 195.695 54.8238 195.695 52.0835C195.695 49.389 195.098 46.9629 193.902 44.8101C192.705 42.6574 191.052 40.9718 188.944 39.7545C186.833 38.5373 184.475 37.9281 181.866 37.9281C179.213 37.9281 176.843 38.5265 174.756 39.722C172.667 40.9188 171.025 42.5924 169.829 44.7451C168.634 46.8979 168.037 49.3456 168.037 52.0835C168.037 54.8238 168.634 57.2703 169.829 59.4231C171.025 61.5759 172.667 63.2506 174.756 64.4462C176.843 65.6442 179.213 66.2402 181.866 66.2402C184.475 66.2402 186.833 65.6442 188.944 64.4462ZM181.801 74.3949C177.626 74.3949 173.798 73.416 170.319 71.4595C166.84 69.5018 164.078 66.8181 162.035 63.4023C159.989 59.989 158.968 56.2168 158.968 52.0835C158.968 47.9526 159.989 44.1804 162.035 40.7659C164.078 37.3526 166.84 34.6664 170.319 32.7099C173.798 30.7522 177.626 29.7734 181.801 29.7734C185.976 29.7734 189.814 30.7522 193.315 32.7099C196.815 34.6664 199.599 37.3526 201.665 40.7659C203.73 44.1804 204.765 47.9526 204.765 52.0835C204.765 56.2168 203.73 59.989 201.665 63.4023C199.599 66.8181 196.815 69.5018 193.315 71.4595C189.814 73.416 185.976 74.3949 181.801 74.3949Z" fill="#F7F7FA"/>
<path fill-rule="evenodd" clip-rule="evenodd" d="M218.789 50.6485H226.16C228.203 50.6485 229.802 50.0838 230.955 48.952C232.107 47.8227 232.683 46.3225 232.683 44.4515C232.683 42.625 232.097 41.1465 230.922 40.0147C229.748 38.8842 228.16 38.3195 226.16 38.3195H218.789V50.6485ZM236.403 73.6112L225.248 58.4107H218.789V73.6112H209.982V30.5561H226.16C229.161 30.5561 231.836 31.1328 234.184 32.285C236.533 33.4385 238.37 35.0687 239.697 37.1781C241.022 39.2863 241.687 41.7124 241.687 44.4515C241.687 47.1906 241.012 49.6275 239.664 51.7573C238.316 53.8884 236.469 55.5415 234.119 56.7166L246.316 73.6112H236.403Z" fill="#F7F7FA"/>
<path fill-rule="evenodd" clip-rule="evenodd" d="M254.113 71.8171C251.22 70.099 248.949 67.7849 247.297 64.8688L253.363 60.3032C254.755 62.2176 256.277 63.7394 257.93 64.8688C259.582 66.0018 261.583 66.5664 263.931 66.5664C265.844 66.5664 267.344 66.1426 268.432 65.2938C269.52 64.445 270.064 63.2819 270.064 61.8034C270.064 60.5428 269.66 59.576 268.856 58.9006C268.052 58.2263 266.627 57.4112 264.583 56.454L259.953 54.3663C256.646 52.8878 254.082 51.1709 252.253 49.2132C250.426 47.2555 249.515 44.8427 249.515 41.9711C249.515 39.5366 250.133 37.3959 251.374 35.5466C252.613 33.6984 254.319 32.2741 256.496 31.2736C258.668 30.273 261.104 29.7734 263.802 29.7734C267.105 29.7734 269.966 30.5126 272.379 31.9911C274.793 33.4697 276.674 35.4478 278.022 37.9281L272.02 42.5587C269.802 39.2549 267.063 37.6018 263.802 37.6018C262.277 37.6018 261.007 37.9594 259.985 38.677C258.962 39.3958 258.452 40.4288 258.452 41.7761C258.452 42.9078 258.833 43.8096 259.593 44.4839C260.353 45.1581 261.648 45.9082 263.474 46.7341L268.367 48.8869C271.977 50.4966 274.651 52.2689 276.392 54.2038C278.131 56.1398 279 58.5634 279 61.4783C279 64.0874 278.348 66.3702 277.043 68.3267C275.738 70.2844 273.945 71.7846 271.661 72.8284C269.379 73.8723 266.802 74.3949 263.931 74.3949C260.278 74.3949 257.004 73.5352 254.113 71.8171Z" fill="#F7F7FA"/>
<path fill-rule="evenodd" clip-rule="evenodd" d="M67.9016 20.4585H277.513V0.443146H67.9016V20.4585Z" fill="#C81D1E"/>
<path fill-rule="evenodd" clip-rule="evenodd" d="M0.733032 73.6112H56.9141V30.5561H0.733032V73.6112Z" fill="#142E74"/>
<path fill-rule="evenodd" clip-rule="evenodd" d="M29.7182 2.21341C31.0727 3.69072 31.7493 5.64842 31.7493 8.08773V20.5684H26.2627V8.8607C26.2627 7.66753 25.9364 6.71878 25.2862 6.01444C24.6361 5.3101 23.7692 4.95733 22.6844 4.95733C21.6008 4.95733 20.7134 5.3101 20.0211 6.01444C19.3312 6.71878 18.9857 7.6266 18.9857 8.73789V20.5684H13.4966V8.8607C13.4966 7.66753 13.1716 6.71878 12.5214 6.01444C11.8712 5.3101 11.0032 4.95733 9.91956 4.95733C8.80827 4.95733 7.9149 5.3101 7.23584 6.01444C6.55919 6.71878 6.21966 7.66753 6.21966 8.8607V20.5684H0.733032V0.444731H5.77298V2.23388C6.45083 1.52954 7.27678 0.980512 8.25322 0.586803C9.22846 0.194299 10.2988 -0.00195312 11.4643 -0.00195312C14.1203 -0.00195312 16.1117 0.960044 17.441 2.88404C18.226 1.98946 19.1952 1.28512 20.3474 0.769812C21.4996 0.255703 22.7662 -0.00195312 24.1484 -0.00195312C26.5059 -0.00195312 28.3624 0.7361 29.7182 2.21341Z" fill="#F7F7FA"/>
<path fill-rule="evenodd" clip-rule="evenodd" d="M49.3517 0.443831V5.28151H47.8888C46.2345 5.28151 44.9209 5.72217 43.9457 6.6035C42.9692 7.48362 42.4816 8.79237 42.4816 10.5261V20.5675H36.9926V0.443831H42.0349V2.8422C42.7116 2.00301 43.5243 1.35285 44.4742 0.891719C45.4218 0.430587 46.4524 0.200623 47.5637 0.200623C48.2404 0.200623 48.8363 0.281291 49.3517 0.443831Z" fill="#F7F7FA"/>
</svg>
