<svg width="17" height="14" viewBox="0 0 17 14" fill="none" xmlns="http://www.w3.org/2000/svg">
<g opacity="0.8">
<path fill-rule="evenodd" clip-rule="evenodd" d="M7.87538 3.8946L7.91052 4.47401L7.32488 4.40306C5.19315 4.13109 3.33082 3.20876 1.7496 1.65971L0.976555 0.891103L0.777438 1.45869C0.355778 2.72394 0.625171 4.06014 1.50363 4.95883C1.97214 5.45547 1.86673 5.52642 1.05854 5.2308C0.777438 5.1362 0.531469 5.06525 0.508044 5.10072C0.426054 5.1835 0.707161 6.25955 0.929704 6.68525C1.23424 7.27648 1.85501 7.8559 2.53435 8.19882L3.10828 8.47079L2.42894 8.48261C1.77302 8.48261 1.7496 8.49444 1.81987 8.74276C2.05413 9.51137 2.97944 10.3273 4.01016 10.682L4.73635 10.9303L4.10387 11.3087C3.16684 11.8527 2.06584 12.1601 0.964842 12.1838C0.437767 12.1956 0.00439453 12.2429 0.00439453 12.2784C0.00439453 12.3966 1.43335 13.0588 2.26496 13.3189C4.75978 14.0876 7.72311 13.7565 9.94854 12.4439C11.5298 11.5098 13.111 9.65327 13.8489 7.8559C14.2471 6.89809 14.6454 5.14802 14.6454 4.30847C14.6454 3.76452 14.6805 3.69358 15.3364 3.04321C15.7229 2.66482 16.086 2.25095 16.1563 2.1327C16.2734 1.90803 16.2617 1.90803 15.6644 2.10906C14.6688 2.4638 14.5282 2.4165 15.0202 1.88438C15.3833 1.50599 15.8166 0.820154 15.8166 0.619133C15.8166 0.583659 15.6409 0.642783 15.4418 0.749206C15.231 0.867453 14.7625 1.04483 14.4111 1.15125L13.7786 1.35227L13.2047 0.962052C12.8884 0.749206 12.4434 0.51271 12.2091 0.441761C11.6118 0.276214 10.6982 0.299864 10.1594 0.48906C8.69527 1.02118 7.76996 2.39285 7.87538 3.8946Z" fill="#9A9AAD"/>
</g>
</svg>
