<svg width="24" height="15" viewBox="0 0 24 15" fill="none" xmlns="http://www.w3.org/2000/svg">
<path d="M15.1968 0.507021C14.4216 0.507021 13.6431 0.507022 12.8679 0.507022C11.5458 0.507022 10.2204 0.507022 8.89832 0.507022C7.83034 0.507023 6.75914 0.465204 5.7185 0.762759C4.65373 1.06836 3.67261 1.63451 2.87323 2.40172C2.07063 3.17215 1.47874 4.14041 1.12972 5.19392C0.771041 6.27316 0.722789 7.44086 0.927057 8.55549C1.12811 9.66046 1.63636 10.6673 2.32798 11.5423C3.57932 13.125 5.58018 14.0353 7.58586 14.0369C8.27265 14.0385 8.95944 14.0369 9.64784 14.0369C10.9699 14.0369 12.2953 14.0369 13.6174 14.0369C14.8333 14.0369 16.0461 14.0369 17.262 14.0369C18.1177 14.0369 18.9878 14.0836 19.8258 13.8664C20.8906 13.5898 21.9023 12.9609 22.5875 12.0956C22.7853 11.8463 22.9719 11.5922 23.1279 11.3139C23.2791 11.0437 23.3997 10.7526 23.5075 10.4614C23.7005 9.93067 23.7938 9.35486 23.8002 8.79192C23.8131 7.69499 23.4753 6.5498 22.8191 5.66196C22.6325 5.41105 22.4427 5.16657 22.2207 4.94783C21.9956 4.72587 21.7447 4.52964 21.4873 4.34629C21.0337 4.02461 20.5126 3.78656 19.9802 3.62733C19.123 3.37159 18.2319 3.41341 17.3505 3.41341C16.1442 3.41341 14.9379 3.41341 13.7316 3.41341C12.3998 3.41341 11.0713 3.41341 9.73951 3.41341C9.02538 3.41341 8.31125 3.41341 7.59712 3.41341C6.60956 3.41341 5.67346 3.78335 4.94164 4.44762C4.03128 5.27434 3.59219 6.54337 3.74659 7.75289C3.90261 8.97045 4.63443 10.0754 5.72332 10.6625C6.35221 11.0019 7.03257 11.1322 7.74026 11.1322C8.78894 11.1322 9.83763 11.1322 10.8863 11.1322C12.1151 11.1322 13.3407 11.1322 14.5696 11.1322C14.7786 11.1322 14.9877 11.1322 15.2001 11.1322C15.6761 11.1322 16.1313 10.7124 16.1104 10.2218C16.0895 9.72801 15.7083 9.31144 15.2001 9.31144C14.9363 9.31144 14.6725 9.31144 14.4119 9.31144C13.7847 9.31144 13.1574 9.31144 12.5301 9.31144C11.7806 9.31144 11.0278 9.31144 10.2783 9.31144C9.64783 9.31144 9.01412 9.31144 8.38363 9.31144C8.11341 9.31144 7.8432 9.31144 7.57299 9.31144C7.45075 9.31144 7.33012 9.30339 7.20788 9.29053C7.28509 9.30018 7.36229 9.30983 7.43949 9.31948C7.18215 9.28731 6.93284 9.22137 6.69319 9.12647C6.76557 9.15703 6.83956 9.18598 6.91194 9.21654C6.66907 9.11521 6.44067 8.98654 6.23158 8.8257C6.29592 8.87395 6.36186 8.92381 6.42459 8.97367C6.21871 8.81283 6.03375 8.62786 5.87291 8.42199C5.92116 8.48632 5.97102 8.55227 6.02088 8.615C5.86165 8.4043 5.73137 8.17751 5.63004 7.93464C5.6606 8.00702 5.68955 8.08101 5.72011 8.15338C5.6236 7.91212 5.55927 7.66443 5.5271 7.40708C5.53675 7.48429 5.5464 7.56149 5.55605 7.63869C5.52871 7.39582 5.5271 7.15295 5.55605 6.90848C5.5464 6.98568 5.53675 7.06289 5.5271 7.14009C5.55927 6.88274 5.62521 6.63344 5.72011 6.39379C5.68955 6.46617 5.6606 6.54015 5.63004 6.61253C5.73137 6.36966 5.86004 6.14127 6.02088 5.93218C5.97263 5.99651 5.92277 6.06246 5.87291 6.12519C6.03375 5.91931 6.21871 5.73434 6.42459 5.5735C6.36025 5.62175 6.29431 5.67161 6.23158 5.72148C6.44228 5.56224 6.66907 5.43196 6.91194 5.33063C6.83956 5.36119 6.76557 5.39014 6.69319 5.4207C6.93445 5.3242 7.18215 5.25986 7.43949 5.22769C7.36229 5.23734 7.28509 5.247 7.20788 5.25665C7.65984 5.20357 8.12789 5.23413 8.58146 5.23413C9.47573 5.23413 10.37 5.23413 11.2643 5.23413C12.3548 5.23413 13.4453 5.23413 14.539 5.23413C15.4622 5.23413 16.3887 5.23413 17.3119 5.23413C17.7043 5.23413 18.0984 5.23252 18.4925 5.23413C18.6823 5.23413 18.8688 5.24699 19.057 5.27112C18.9798 5.26147 18.9026 5.25182 18.8254 5.24217C19.2002 5.29203 19.5653 5.38693 19.9159 5.52846C19.8435 5.49791 19.7695 5.46896 19.6972 5.4384C20.0574 5.58637 20.3968 5.78099 20.7072 6.0142C20.6429 5.96595 20.577 5.91609 20.5142 5.86623C20.8295 6.10749 21.1109 6.38896 21.3538 6.70582C21.3056 6.64148 21.2557 6.57554 21.2058 6.51281C21.4407 6.82484 21.6337 7.16261 21.7816 7.52289C21.7511 7.45051 21.7221 7.37652 21.6916 7.30415C21.8331 7.65478 21.928 8.01989 21.9779 8.39465C21.9682 8.31744 21.9586 8.24024 21.9489 8.16304C21.9956 8.53779 21.9956 8.91738 21.9489 9.29214C21.9586 9.21493 21.9682 9.13773 21.9779 9.06053C21.928 9.43528 21.8331 9.80039 21.6916 10.151C21.7221 10.0786 21.7511 10.0047 21.7816 9.93228C21.6337 10.2926 21.4391 10.6319 21.2058 10.9424C21.2541 10.878 21.304 10.8121 21.3538 10.7494C21.1126 11.0646 20.8311 11.3461 20.5142 11.5889C20.5786 11.5407 20.6445 11.4908 20.7072 11.441C20.3952 11.6758 20.0574 11.8688 19.6972 12.0168C19.7695 11.9862 19.8435 11.9573 19.9159 11.9267C19.5653 12.0682 19.2002 12.1631 18.8254 12.213C18.9026 12.2034 18.9798 12.1937 19.057 12.184C18.5552 12.2452 18.0373 12.2194 17.5322 12.2194C16.6283 12.2194 15.7276 12.2194 14.8237 12.2194C13.7171 12.2194 12.6105 12.2194 11.5072 12.2194C10.5743 12.2194 9.63818 12.2194 8.70531 12.2194C8.27425 12.2194 7.83999 12.2291 7.40893 12.2162C7.20949 12.2098 7.01166 12.1953 6.81543 12.1696C6.89263 12.1792 6.96984 12.1889 7.04704 12.1985C6.55648 12.1326 6.07717 12.0071 5.61717 11.8238C5.68955 11.8543 5.76353 11.8833 5.83591 11.9138C5.34857 11.716 4.89178 11.4554 4.47359 11.137C4.53793 11.1852 4.60387 11.2351 4.6666 11.285C4.25324 10.9681 3.88331 10.5982 3.56484 10.1832C3.61309 10.2475 3.66295 10.3135 3.71282 10.3762C3.39435 9.95802 3.13379 9.50123 2.93596 9.01388C2.96652 9.08626 2.99547 9.16025 3.02603 9.23262C2.84267 8.77262 2.71721 8.29332 2.65127 7.80275C2.66092 7.87996 2.67057 7.95716 2.68022 8.03436C2.61588 7.52932 2.61588 7.01785 2.68022 6.50959C2.67057 6.5868 2.66092 6.664 2.65127 6.7412C2.71721 6.25064 2.84267 5.77134 3.02603 5.31133C2.99547 5.38371 2.96652 5.4577 2.93596 5.53007C3.13379 5.04273 3.39435 4.58594 3.71282 4.16775C3.66456 4.23209 3.6147 4.29803 3.56484 4.36076C3.8817 3.9474 4.25163 3.57747 4.6666 3.259C4.60227 3.30726 4.53632 3.35712 4.47359 3.40698C4.89178 3.08851 5.34856 2.82795 5.83591 2.63012C5.76353 2.66068 5.68955 2.68963 5.61717 2.72019C6.07717 2.53683 6.55648 2.41138 7.04704 2.34543C6.96984 2.35508 6.89263 2.36473 6.81543 2.37438C7.24005 2.3197 7.66628 2.32452 8.09251 2.32613C8.67797 2.32613 9.26664 2.32613 9.8521 2.32613C10.6177 2.32613 11.3801 2.32613 12.1457 2.32613C12.8244 2.32613 13.5064 2.32613 14.1851 2.32613C14.5197 2.32613 14.8542 2.33256 15.1888 2.32613C15.1952 2.32613 15.1984 2.32613 15.2049 2.32613C15.681 2.32613 16.1361 1.90634 16.1152 1.41577C16.0847 0.925208 15.7051 0.507021 15.1968 0.507021Z" fill="#1F2032"/>
</svg>
